<?xml version="1.0" encoding="utf-8"?>
<!-- Generator: Adobe Illustrator 26.1.0, SVG Export Plug-In . SVG Version: 6.00 Build 0)  -->
<svg version="1.1" id="Layer_1" xmlns="http://www.w3.org/2000/svg" xmlns:xlink="http://www.w3.org/1999/xlink" x="0px" y="0px"
	 viewBox="0 0 48 41.22" style="enable-background:new 0 0 48 41.22;" xml:space="preserve">
<style type="text/css">
	.st0{fill:#1F2F36;}
	.st1{fill:#1D37F2;}
	.st2{fill:#1DA1F2;}
	.st3{fill:#FFFFFF;}
</style>
<g>
	<g>
		<path class="st1" d="M29.65,12.48c5.82,9.32,6.95,19.61,3.39,25.58c3.66-2.4,7.07-5.97,9.77-10.29
			c6.66-10.66,6.95-22.54,0.64-26.49c-4.8-3-12.04-0.56-18.17,5.46C26.85,8.44,28.33,10.36,29.65,12.48L29.65,12.48z"/>
		<path class="st2" d="M28.08,13.46L28.08,13.46c-1.24-1.99-2.62-3.79-4.09-5.39c-0.21-0.23-0.42-0.45-0.63-0.67
			c-0.21-0.22-0.42-0.44-0.64-0.66C18.37,2.47,13.46,0,9.26,0C7.54,0,5.94,0.41,4.55,1.28c-6.31,3.94-6.02,15.83,0.64,26.49
			c2.7,4.32,6.11,7.89,9.77,10.29c0.67,0.44,1.35,0.84,2.04,1.2c0.1,0.05,0.2,0.11,0.3,0.16c1.72,0.87,3.4,1.42,4.98,1.66
			c0.15,0.02,0.31,0.05,0.46,0.06c0.03,0,0.06,0.01,0.09,0.01c0.22,0.02,0.43,0.04,0.65,0.05c0.03,0,0.07,0,0.1,0.01
			c0.14,0.01,0.28,0,0.41,0.01c0.15,0,0.29,0,0.44-0.01c0.02,0,0.05,0,0.07,0c0.22-0.01,0.45-0.03,0.68-0.05
			c0.02,0,0.04,0,0.05-0.01c0.16-0.02,0.33-0.04,0.49-0.07c1.08-0.19,2.09-0.56,2.99-1.13C35.04,36.01,34.75,24.12,28.08,13.46z"/>
	</g>
</g>
</svg>
